<?xml version="1.0" encoding="utf-8" standalone="no"?>
<!DOCTYPE svg PUBLIC "-//W3C//DTD SVG 1.1//EN"
  "http://www.w3.org/Graphics/SVG/1.1/DTD/svg11.dtd">
<!-- Created with matplotlib (https://matplotlib.org/) -->
<svg height="278.64pt" version="1.1" viewBox="0 0 1301.04 278.64" width="1301.04pt" xmlns="http://www.w3.org/2000/svg" xmlns:xlink="http://www.w3.org/1999/xlink">
 <defs>
  <style type="text/css">
*{stroke-linecap:butt;stroke-linejoin:round;}
  </style>
 </defs>
 <g id="figure_1">
  <g id="patch_1">
   <path d="M 0 278.64 
L 1301.04 278.64 
L 1301.04 0 
L 0 0 
z
" style="fill:#ffffff;"/>
  </g>
  <g id="axes_1">
   <g id="patch_2">
    <path d="M 162.63 247.9896 
L 381.826957 247.9896 
L 381.826957 33.4368 
L 162.63 33.4368 
z
" style="fill:#ffffff;"/>
   </g>
   <g id="matplotlib.axis_1">
    <g id="xtick_1">
     <g id="line2d_1">
      <defs>
       <path d="M 0 0 
L 0 3.5 
" id="m57230c55be" style="stroke:#000000;stroke-width:0.8;"/>
      </defs>
      <g>
       <use style="stroke:#000000;stroke-width:0.8;" x="172.593498" xlink:href="#m57230c55be" y="247.9896"/>
      </g>
     </g>
     <g id="text_1">
      <!-- 0 -->
      <defs>
       <path d="M 31.78125 66.40625 
Q 24.171875 66.40625 20.328125 58.90625 
Q 16.5 51.421875 16.5 36.375 
Q 16.5 21.390625 20.328125 13.890625 
Q 24.171875 6.390625 31.78125 6.390625 
Q 39.453125 6.390625 43.28125 13.890625 
Q 47.125 21.390625 47.125 36.375 
Q 47.125 51.421875 43.28125 58.90625 
Q 39.453125 66.40625 31.78125 66.40625 
z
M 31.78125 74.21875 
Q 44.046875 74.21875 50.515625 64.515625 
Q 56.984375 54.828125 56.984375 36.375 
Q 56.984375 17.96875 50.515625 8.265625 
Q 44.046875 -1.421875 31.78125 -1.421875 
Q 19.53125 -1.421875 13.0625 8.265625 
Q 6.59375 17.96875 6.59375 36.375 
Q 6.59375 54.828125 13.0625 64.515625 
Q 19.53125 74.21875 31.78125 74.21875 
z
" id="DejaVuSans-48"/>
      </defs>
      <g transform="translate(169.412248 262.588037)scale(0.1 -0.1)">
       <use xlink:href="#DejaVuSans-48"/>
      </g>
     </g>
    </g>
    <g id="xtick_2">
     <g id="line2d_2">
      <g>
       <use style="stroke:#000000;stroke-width:0.8;" x="212.44749" xlink:href="#m57230c55be" y="247.9896"/>
      </g>
     </g>
     <g id="text_2">
      <!-- 10 -->
      <defs>
       <path d="M 12.40625 8.296875 
L 28.515625 8.296875 
L 28.515625 63.921875 
L 10.984375 60.40625 
L 10.984375 69.390625 
L 28.421875 72.90625 
L 38.28125 72.90625 
L 38.28125 8.296875 
L 54.390625 8.296875 
L 54.390625 0 
L 12.40625 0 
z
" id="DejaVuSans-49"/>
      </defs>
      <g transform="translate(206.08499 262.588037)scale(0.1 -0.1)">
       <use xlink:href="#DejaVuSans-49"/>
       <use x="63.623047" xlink:href="#DejaVuSans-48"/>
      </g>
     </g>
    </g>
    <g id="xtick_3">
     <g id="line2d_3">
      <g>
       <use style="stroke:#000000;stroke-width:0.8;" x="252.301482" xlink:href="#m57230c55be" y="247.9896"/>
      </g>
     </g>
     <g id="text_3">
      <!-- 20 -->
      <defs>
       <path d="M 19.1875 8.296875 
L 53.609375 8.296875 
L 53.609375 0 
L 7.328125 0 
L 7.328125 8.296875 
Q 12.9375 14.109375 22.625 23.890625 
Q 32.328125 33.6875 34.8125 36.53125 
Q 39.546875 41.84375 41.421875 45.53125 
Q 43.3125 49.21875 43.3125 52.78125 
Q 43.3125 58.59375 39.234375 62.25 
Q 35.15625 65.921875 28.609375 65.921875 
Q 23.96875 65.921875 18.8125 64.3125 
Q 13.671875 62.703125 7.8125 59.421875 
L 7.8125 69.390625 
Q 13.765625 71.78125 18.9375 73 
Q 24.125 74.21875 28.421875 74.21875 
Q 39.75 74.21875 46.484375 68.546875 
Q 53.21875 62.890625 53.21875 53.421875 
Q 53.21875 48.921875 51.53125 44.890625 
Q 49.859375 40.875 45.40625 35.40625 
Q 44.1875 33.984375 37.640625 27.21875 
Q 31.109375 20.453125 19.1875 8.296875 
z
" id="DejaVuSans-50"/>
      </defs>
      <g transform="translate(245.938982 262.588037)scale(0.1 -0.1)">
       <use xlink:href="#DejaVuSans-50"/>
       <use x="63.623047" xlink:href="#DejaVuSans-48"/>
      </g>
     </g>
    </g>
    <g id="xtick_4">
     <g id="line2d_4">
      <g>
       <use style="stroke:#000000;stroke-width:0.8;" x="292.155474" xlink:href="#m57230c55be" y="247.9896"/>
      </g>
     </g>
     <g id="text_4">
      <!-- 30 -->
      <defs>
       <path d="M 40.578125 39.3125 
Q 47.65625 37.796875 51.625 33 
Q 55.609375 28.21875 55.609375 21.1875 
Q 55.609375 10.40625 48.1875 4.484375 
Q 40.765625 -1.421875 27.09375 -1.421875 
Q 22.515625 -1.421875 17.65625 -0.515625 
Q 12.796875 0.390625 7.625 2.203125 
L 7.625 11.71875 
Q 11.71875 9.328125 16.59375 8.109375 
Q 21.484375 6.890625 26.8125 6.890625 
Q 36.078125 6.890625 40.9375 10.546875 
Q 45.796875 14.203125 45.796875 21.1875 
Q 45.796875 27.640625 41.28125 31.265625 
Q 36.765625 34.90625 28.71875 34.90625 
L 20.21875 34.90625 
L 20.21875 43.015625 
L 29.109375 43.015625 
Q 36.375 43.015625 40.234375 45.921875 
Q 44.09375 48.828125 44.09375 54.296875 
Q 44.09375 59.90625 40.109375 62.90625 
Q 36.140625 65.921875 28.71875 65.921875 
Q 24.65625 65.921875 20.015625 65.03125 
Q 15.375 64.15625 9.8125 62.3125 
L 9.8125 71.09375 
Q 15.4375 72.65625 20.34375 73.4375 
Q 25.25 74.21875 29.59375 74.21875 
Q 40.828125 74.21875 47.359375 69.109375 
Q 53.90625 64.015625 53.90625 55.328125 
Q 53.90625 49.265625 50.4375 45.09375 
Q 46.96875 40.921875 40.578125 39.3125 
z
" id="DejaVuSans-51"/>
      </defs>
      <g transform="translate(285.792974 262.588037)scale(0.1 -0.1)">
       <use xlink:href="#DejaVuSans-51"/>
       <use x="63.623047" xlink:href="#DejaVuSans-48"/>
      </g>
     </g>
    </g>
    <g id="xtick_5">
     <g id="line2d_5">
      <g>
       <use style="stroke:#000000;stroke-width:0.8;" x="332.009466" xlink:href="#m57230c55be" y="247.9896"/>
      </g>
     </g>
     <g id="text_5">
      <!-- 40 -->
      <defs>
       <path d="M 37.796875 64.3125 
L 12.890625 25.390625 
L 37.796875 25.390625 
z
M 35.203125 72.90625 
L 47.609375 72.90625 
L 47.609375 25.390625 
L 58.015625 25.390625 
L 58.015625 17.1875 
L 47.609375 17.1875 
L 47.609375 0 
L 37.796875 0 
L 37.796875 17.1875 
L 4.890625 17.1875 
L 4.890625 26.703125 
z
" id="DejaVuSans-52"/>
      </defs>
      <g transform="translate(325.646966 262.588037)scale(0.1 -0.1)">
       <use xlink:href="#DejaVuSans-52"/>
       <use x="63.623047" xlink:href="#DejaVuSans-48"/>
      </g>
     </g>
    </g>
    <g id="xtick_6">
     <g id="line2d_6">
      <g>
       <use style="stroke:#000000;stroke-width:0.8;" x="371.863458" xlink:href="#m57230c55be" y="247.9896"/>
      </g>
     </g>
     <g id="text_6">
      <!-- 50 -->
      <defs>
       <path d="M 10.796875 72.90625 
L 49.515625 72.90625 
L 49.515625 64.59375 
L 19.828125 64.59375 
L 19.828125 46.734375 
Q 21.96875 47.46875 24.109375 47.828125 
Q 26.265625 48.1875 28.421875 48.1875 
Q 40.625 48.1875 47.75 41.5 
Q 54.890625 34.8125 54.890625 23.390625 
Q 54.890625 11.625 47.5625 5.09375 
Q 40.234375 -1.421875 26.90625 -1.421875 
Q 22.3125 -1.421875 17.546875 -0.640625 
Q 12.796875 0.140625 7.71875 1.703125 
L 7.71875 11.625 
Q 12.109375 9.234375 16.796875 8.0625 
Q 21.484375 6.890625 26.703125 6.890625 
Q 35.15625 6.890625 40.078125 11.328125 
Q 45.015625 15.765625 45.015625 23.390625 
Q 45.015625 31 40.078125 35.4375 
Q 35.15625 39.890625 26.703125 39.890625 
Q 22.75 39.890625 18.8125 39.015625 
Q 14.890625 38.140625 10.796875 36.28125 
z
" id="DejaVuSans-53"/>
      </defs>
      <g transform="translate(365.500958 262.588037)scale(0.1 -0.1)">
       <use xlink:href="#DejaVuSans-53"/>
       <use x="63.623047" xlink:href="#DejaVuSans-48"/>
      </g>
     </g>
    </g>
   </g>
   <g id="matplotlib.axis_2">
    <g id="ytick_1">
     <g id="line2d_7">
      <defs>
       <path d="M 0 0 
L -3.5 0 
" id="mc24ce28d86" style="stroke:#000000;stroke-width:0.8;"/>
      </defs>
      <g>
       <use style="stroke:#000000;stroke-width:0.8;" x="162.63" xlink:href="#mc24ce28d86" y="238.2372"/>
      </g>
     </g>
     <g id="text_7">
      <!-- 0 -->
      <g transform="translate(149.2675 242.036419)scale(0.1 -0.1)">
       <use xlink:href="#DejaVuSans-48"/>
      </g>
     </g>
    </g>
    <g id="ytick_2">
     <g id="line2d_8">
      <g>
       <use style="stroke:#000000;stroke-width:0.8;" x="162.63" xlink:href="#mc24ce28d86" y="199.161516"/>
      </g>
     </g>
     <g id="text_8">
      <!-- 200 -->
      <g transform="translate(136.5425 202.960734)scale(0.1 -0.1)">
       <use xlink:href="#DejaVuSans-50"/>
       <use x="63.623047" xlink:href="#DejaVuSans-48"/>
       <use x="127.246094" xlink:href="#DejaVuSans-48"/>
      </g>
     </g>
    </g>
    <g id="ytick_3">
     <g id="line2d_9">
      <g>
       <use style="stroke:#000000;stroke-width:0.8;" x="162.63" xlink:href="#mc24ce28d86" y="160.085831"/>
      </g>
     </g>
     <g id="text_9">
      <!-- 400 -->
      <g transform="translate(136.5425 163.88505)scale(0.1 -0.1)">
       <use xlink:href="#DejaVuSans-52"/>
       <use x="63.623047" xlink:href="#DejaVuSans-48"/>
       <use x="127.246094" xlink:href="#DejaVuSans-48"/>
      </g>
     </g>
    </g>
    <g id="ytick_4">
     <g id="line2d_10">
      <g>
       <use style="stroke:#000000;stroke-width:0.8;" x="162.63" xlink:href="#mc24ce28d86" y="121.010147"/>
      </g>
     </g>
     <g id="text_10">
      <!-- 600 -->
      <defs>
       <path d="M 33.015625 40.375 
Q 26.375 40.375 22.484375 35.828125 
Q 18.609375 31.296875 18.609375 23.390625 
Q 18.609375 15.53125 22.484375 10.953125 
Q 26.375 6.390625 33.015625 6.390625 
Q 39.65625 6.390625 43.53125 10.953125 
Q 47.40625 15.53125 47.40625 23.390625 
Q 47.40625 31.296875 43.53125 35.828125 
Q 39.65625 40.375 33.015625 40.375 
z
M 52.59375 71.296875 
L 52.59375 62.3125 
Q 48.875 64.0625 45.09375 64.984375 
Q 41.3125 65.921875 37.59375 65.921875 
Q 27.828125 65.921875 22.671875 59.328125 
Q 17.53125 52.734375 16.796875 39.40625 
Q 19.671875 43.65625 24.015625 45.921875 
Q 28.375 48.1875 33.59375 48.1875 
Q 44.578125 48.1875 50.953125 41.515625 
Q 57.328125 34.859375 57.328125 23.390625 
Q 57.328125 12.15625 50.6875 5.359375 
Q 44.046875 -1.421875 33.015625 -1.421875 
Q 20.359375 -1.421875 13.671875 8.265625 
Q 6.984375 17.96875 6.984375 36.375 
Q 6.984375 53.65625 15.1875 63.9375 
Q 23.390625 74.21875 37.203125 74.21875 
Q 40.921875 74.21875 44.703125 73.484375 
Q 48.484375 72.75 52.59375 71.296875 
z
" id="DejaVuSans-54"/>
      </defs>
      <g transform="translate(136.5425 124.809366)scale(0.1 -0.1)">
       <use xlink:href="#DejaVuSans-54"/>
       <use x="63.623047" xlink:href="#DejaVuSans-48"/>
       <use x="127.246094" xlink:href="#DejaVuSans-48"/>
      </g>
     </g>
    </g>
    <g id="ytick_5">
     <g id="line2d_11">
      <g>
       <use style="stroke:#000000;stroke-width:0.8;" x="162.63" xlink:href="#mc24ce28d86" y="81.934462"/>
      </g>
     </g>
     <g id="text_11">
      <!-- 800 -->
      <defs>
       <path d="M 31.78125 34.625 
Q 24.75 34.625 20.71875 30.859375 
Q 16.703125 27.09375 16.703125 20.515625 
Q 16.703125 13.921875 20.71875 10.15625 
Q 24.75 6.390625 31.78125 6.390625 
Q 38.8125 6.390625 42.859375 10.171875 
Q 46.921875 13.96875 46.921875 20.515625 
Q 46.921875 27.09375 42.890625 30.859375 
Q 38.875 34.625 31.78125 34.625 
z
M 21.921875 38.8125 
Q 15.578125 40.375 12.03125 44.71875 
Q 8.5 49.078125 8.5 55.328125 
Q 8.5 64.0625 14.71875 69.140625 
Q 20.953125 74.21875 31.78125 74.21875 
Q 42.671875 74.21875 48.875 69.140625 
Q 55.078125 64.0625 55.078125 55.328125 
Q 55.078125 49.078125 51.53125 44.71875 
Q 48 40.375 41.703125 38.8125 
Q 48.828125 37.15625 52.796875 32.3125 
Q 56.78125 27.484375 56.78125 20.515625 
Q 56.78125 9.90625 50.3125 4.234375 
Q 43.84375 -1.421875 31.78125 -1.421875 
Q 19.734375 -1.421875 13.25 4.234375 
Q 6.78125 9.90625 6.78125 20.515625 
Q 6.78125 27.484375 10.78125 32.3125 
Q 14.796875 37.15625 21.921875 38.8125 
z
M 18.3125 54.390625 
Q 18.3125 48.734375 21.84375 45.5625 
Q 25.390625 42.390625 31.78125 42.390625 
Q 38.140625 42.390625 41.71875 45.5625 
Q 45.3125 48.734375 45.3125 54.390625 
Q 45.3125 60.0625 41.71875 63.234375 
Q 38.140625 66.40625 31.78125 66.40625 
Q 25.390625 66.40625 21.84375 63.234375 
Q 18.3125 60.0625 18.3125 54.390625 
z
" id="DejaVuSans-56"/>
      </defs>
      <g transform="translate(136.5425 85.733681)scale(0.1 -0.1)">
       <use xlink:href="#DejaVuSans-56"/>
       <use x="63.623047" xlink:href="#DejaVuSans-48"/>
       <use x="127.246094" xlink:href="#DejaVuSans-48"/>
      </g>
     </g>
    </g>
    <g id="ytick_6">
     <g id="line2d_12">
      <g>
       <use style="stroke:#000000;stroke-width:0.8;" x="162.63" xlink:href="#mc24ce28d86" y="42.858778"/>
      </g>
     </g>
     <g id="text_12">
      <!-- 1000 -->
      <g transform="translate(130.18 46.657997)scale(0.1 -0.1)">
       <use xlink:href="#DejaVuSans-49"/>
       <use x="63.623047" xlink:href="#DejaVuSans-48"/>
       <use x="127.246094" xlink:href="#DejaVuSans-48"/>
       <use x="190.869141" xlink:href="#DejaVuSans-48"/>
      </g>
     </g>
    </g>
   </g>
   <g id="line2d_13">
    <path clip-path="url(#p94fe300129)" d="M 172.593498 62.39662 
L 176.578897 79.980678 
L 180.564296 106.884287 
L 184.549696 142.835579 
L 188.535095 181.279428 
L 192.520494 210.848537 
L 196.505893 226.368473 
L 200.491292 232.691652 
L 204.476692 235.234682 
L 208.462091 236.375258 
L 212.44749 236.951969 
L 216.432889 237.274229 
L 220.418289 237.468982 
L 224.403688 237.59404 
L 228.389087 237.678212 
L 232.374486 237.736978 
L 236.359885 237.779199 
L 240.345285 237.810223 
L 244.330684 237.833429 
L 248.316083 237.851033 
L 252.301482 237.864537 
L 256.286881 237.874988 
L 260.272281 237.883134 
L 264.25768 237.889519 
L 268.243079 237.894546 
L 272.228478 237.898519 
L 276.213877 237.901667 
L 280.199277 237.904167 
L 284.184676 237.906157 
L 288.170075 237.907742 
L 292.155474 237.909007 
L 296.140874 237.910017 
L 300.126273 237.910825 
L 304.111672 237.911471 
L 308.097071 237.911987 
L 312.08247 237.912401 
L 316.06787 237.912732 
L 320.053269 237.912997 
L 324.038668 237.913209 
L 328.024067 237.913379 
L 332.009466 237.913516 
L 335.994866 237.913625 
L 339.980265 237.913712 
L 343.965664 237.913783 
L 347.951063 237.913839 
L 351.936462 237.913884 
L 355.921862 237.91392 
L 359.907261 237.913949 
L 363.89266 237.913972 
L 367.878059 237.913991 
L 371.863458 237.914006 
" style="fill:none;stroke:#1f77b4;stroke-linecap:square;stroke-width:1.5;"/>
   </g>
   <g id="line2d_14">
    <path clip-path="url(#p94fe300129)" d="M 172.593498 218.699358 
L 176.578897 205.022868 
L 180.564296 184.762126 
L 184.549696 159.505848 
L 188.535095 136.80827 
L 192.520494 127.524947 
L 196.505893 134.147462 
L 200.491292 148.642231 
L 204.476692 164.018194 
L 208.462091 177.72142 
L 212.44749 189.247865 
L 216.432889 198.723472 
L 220.418289 206.431464 
L 224.403688 212.667553 
L 228.389087 217.69731 
L 232.374486 221.746523 
L 236.359885 225.002438 
L 240.345285 227.618365 
L 244.330684 229.718926 
L 248.316083 231.404977 
L 252.301482 232.757918 
L 256.286881 233.843323 
L 260.272281 234.713953 
L 264.25768 235.412217 
L 268.243079 235.972187 
L 272.228478 236.421217 
L 276.213877 236.781266 
L 280.199277 237.069952 
L 284.184676 237.301412 
L 288.170075 237.486984 
L 292.155474 237.635762 
L 296.140874 237.755039 
L 300.126273 237.850664 
L 304.111672 237.927326 
L 308.097071 237.988784 
L 312.08247 238.038054 
L 316.06787 238.077552 
L 320.053269 238.109216 
L 324.038668 238.134601 
L 328.024067 238.15495 
L 332.009466 238.171264 
L 335.994866 238.184342 
L 339.980265 238.194826 
L 343.965664 238.203231 
L 347.951063 238.209968 
L 351.936462 238.21537 
L 355.921862 238.2197 
L 359.907261 238.223171 
L 363.89266 238.225953 
L 367.878059 238.228184 
L 371.863458 238.229972 
" style="fill:none;stroke:#ff7f0e;stroke-linecap:square;stroke-width:1.5;"/>
   </g>
   <g id="line2d_15">
    <path clip-path="url(#p94fe300129)" d="M 172.593498 238.2372 
L 176.578897 234.329632 
L 180.564296 227.686765 
L 184.549696 216.99175 
L 188.535095 201.24548 
L 192.520494 180.959694 
L 196.505893 158.817243 
L 200.491292 137.999296 
L 204.476692 120.080302 
L 208.462091 105.236501 
L 212.44749 93.133345 
L 216.432889 83.335478 
L 220.418289 75.432732 
L 224.403688 69.071585 
L 228.389087 63.957655 
L 232.374486 59.849677 
L 236.359885 56.551542 
L 240.345285 53.904589 
L 244.330684 51.780823 
L 248.316083 50.077168 
L 252.301482 48.710723 
L 256.286881 47.614867 
L 260.272281 46.736091 
L 264.25768 46.031442 
L 268.243079 45.466445 
L 272.228478 45.013443 
L 276.213877 44.650246 
L 280.199277 44.359059 
L 284.184676 44.125609 
L 288.170075 43.938452 
L 292.155474 43.788409 
L 296.140874 43.668121 
L 300.126273 43.571689 
L 304.111672 43.494382 
L 308.097071 43.432407 
L 312.08247 43.382724 
L 316.06787 43.342895 
L 320.053269 43.310965 
L 324.038668 43.285368 
L 328.024067 43.264848 
L 332.009466 43.248398 
L 335.994866 43.235211 
L 339.980265 43.22464 
L 343.965664 43.216165 
L 347.951063 43.209371 
L 351.936462 43.203925 
L 355.921862 43.199558 
L 359.907261 43.196058 
L 363.89266 43.193253 
L 367.878059 43.191003 
L 371.863458 43.1892 
" style="fill:none;stroke:#2ca02c;stroke-linecap:square;stroke-width:1.5;"/>
   </g>
   <g id="patch_3">
    <path d="M 162.63 247.9896 
L 162.63 33.4368 
" style="fill:none;stroke:#000000;stroke-linecap:square;stroke-linejoin:miter;stroke-width:0.8;"/>
   </g>
   <g id="patch_4">
    <path d="M 381.826957 247.9896 
L 381.826957 33.4368 
" style="fill:none;stroke:#000000;stroke-linecap:square;stroke-linejoin:miter;stroke-width:0.8;"/>
   </g>
   <g id="patch_5">
    <path d="M 162.63 247.9896 
L 381.826957 247.9896 
" style="fill:none;stroke:#000000;stroke-linecap:square;stroke-linejoin:miter;stroke-width:0.8;"/>
   </g>
   <g id="patch_6">
    <path d="M 162.63 33.4368 
L 381.826957 33.4368 
" style="fill:none;stroke:#000000;stroke-linecap:square;stroke-linejoin:miter;stroke-width:0.8;"/>
   </g>
   <g id="text_13">
    <!-- R_0 = 5.0 -->
    <defs>
     <path d="M 44.390625 34.1875 
Q 47.5625 33.109375 50.5625 29.59375 
Q 53.5625 26.078125 56.59375 19.921875 
L 66.609375 0 
L 56 0 
L 46.6875 18.703125 
Q 43.0625 26.03125 39.671875 28.421875 
Q 36.28125 30.8125 30.421875 30.8125 
L 19.671875 30.8125 
L 19.671875 0 
L 9.8125 0 
L 9.8125 72.90625 
L 32.078125 72.90625 
Q 44.578125 72.90625 50.734375 67.671875 
Q 56.890625 62.453125 56.890625 51.90625 
Q 56.890625 45.015625 53.6875 40.46875 
Q 50.484375 35.9375 44.390625 34.1875 
z
M 19.671875 64.796875 
L 19.671875 38.921875 
L 32.078125 38.921875 
Q 39.203125 38.921875 42.84375 42.21875 
Q 46.484375 45.515625 46.484375 51.90625 
Q 46.484375 58.296875 42.84375 61.546875 
Q 39.203125 64.796875 32.078125 64.796875 
z
" id="DejaVuSans-82"/>
     <path d="M 50.984375 -16.609375 
L 50.984375 -23.578125 
L -0.984375 -23.578125 
L -0.984375 -16.609375 
z
" id="DejaVuSans-95"/>
     <path id="DejaVuSans-32"/>
     <path d="M 10.59375 45.40625 
L 73.1875 45.40625 
L 73.1875 37.203125 
L 10.59375 37.203125 
z
M 10.59375 25.484375 
L 73.1875 25.484375 
L 73.1875 17.1875 
L 10.59375 17.1875 
z
" id="DejaVuSans-61"/>
     <path d="M 10.6875 12.40625 
L 21 12.40625 
L 21 0 
L 10.6875 0 
z
" id="DejaVuSans-46"/>
    </defs>
    <g transform="translate(242.858478 27.4368)scale(0.12 -0.12)">
     <use xlink:href="#DejaVuSans-82"/>
     <use x="69.482422" xlink:href="#DejaVuSans-95"/>
     <use x="119.482422" xlink:href="#DejaVuSans-48"/>
     <use x="183.105469" xlink:href="#DejaVuSans-32"/>
     <use x="214.892578" xlink:href="#DejaVuSans-61"/>
     <use x="298.681641" xlink:href="#DejaVuSans-32"/>
     <use x="330.46875" xlink:href="#DejaVuSans-53"/>
     <use x="394.091797" xlink:href="#DejaVuSans-46"/>
     <use x="425.878906" xlink:href="#DejaVuSans-48"/>
    </g>
   </g>
   <g id="legend_1">
    <g id="patch_7">
     <path d="M 335.878519 164.230388 
L 374.826957 164.230388 
Q 376.826957 164.230388 376.826957 162.230388 
L 376.826957 119.196012 
Q 376.826957 117.196012 374.826957 117.196012 
L 335.878519 117.196012 
Q 333.878519 117.196012 333.878519 119.196012 
L 333.878519 162.230388 
Q 333.878519 164.230388 335.878519 164.230388 
z
" style="fill:#ffffff;opacity:0.8;stroke:#cccccc;stroke-linejoin:miter;"/>
    </g>
    <g id="line2d_16">
     <path d="M 337.878519 125.29445 
L 357.878519 125.29445 
" style="fill:none;stroke:#1f77b4;stroke-linecap:square;stroke-width:1.5;"/>
    </g>
    <g id="line2d_17"/>
    <g id="text_14">
     <!-- S -->
     <defs>
      <path d="M 53.515625 70.515625 
L 53.515625 60.890625 
Q 47.90625 63.578125 42.921875 64.890625 
Q 37.9375 66.21875 33.296875 66.21875 
Q 25.25 66.21875 20.875 63.09375 
Q 16.5 59.96875 16.5 54.203125 
Q 16.5 49.359375 19.40625 46.890625 
Q 22.3125 44.4375 30.421875 42.921875 
L 36.375 41.703125 
Q 47.40625 39.59375 52.65625 34.296875 
Q 57.90625 29 57.90625 20.125 
Q 57.90625 9.515625 50.796875 4.046875 
Q 43.703125 -1.421875 29.984375 -1.421875 
Q 24.8125 -1.421875 18.96875 -0.25 
Q 13.140625 0.921875 6.890625 3.21875 
L 6.890625 13.375 
Q 12.890625 10.015625 18.65625 8.296875 
Q 24.421875 6.59375 29.984375 6.59375 
Q 38.421875 6.59375 43.015625 9.90625 
Q 47.609375 13.234375 47.609375 19.390625 
Q 47.609375 24.75 44.3125 27.78125 
Q 41.015625 30.8125 33.5 32.328125 
L 27.484375 33.5 
Q 16.453125 35.6875 11.515625 40.375 
Q 6.59375 45.0625 6.59375 53.421875 
Q 6.59375 63.09375 13.40625 68.65625 
Q 20.21875 74.21875 32.171875 74.21875 
Q 37.3125 74.21875 42.625 73.28125 
Q 47.953125 72.359375 53.515625 70.515625 
z
" id="DejaVuSans-83"/>
     </defs>
     <g transform="translate(365.878519 128.79445)scale(0.1 -0.1)">
      <use xlink:href="#DejaVuSans-83"/>
     </g>
    </g>
    <g id="line2d_18">
     <path d="M 337.878519 139.972575 
L 357.878519 139.972575 
" style="fill:none;stroke:#ff7f0e;stroke-linecap:square;stroke-width:1.5;"/>
    </g>
    <g id="line2d_19"/>
    <g id="text_15">
     <!-- I -->
     <defs>
      <path d="M 9.8125 72.90625 
L 19.671875 72.90625 
L 19.671875 0 
L 9.8125 0 
z
" id="DejaVuSans-73"/>
     </defs>
     <g transform="translate(365.878519 143.472575)scale(0.1 -0.1)">
      <use xlink:href="#DejaVuSans-73"/>
     </g>
    </g>
    <g id="line2d_20">
     <path d="M 337.878519 154.6507 
L 357.878519 154.6507 
" style="fill:none;stroke:#2ca02c;stroke-linecap:square;stroke-width:1.5;"/>
    </g>
    <g id="line2d_21"/>
    <g id="text_16">
     <!-- R -->
     <g transform="translate(365.878519 158.1507)scale(0.1 -0.1)">
      <use xlink:href="#DejaVuSans-82"/>
     </g>
    </g>
   </g>
  </g>
  <g id="axes_2">
   <g id="patch_8">
    <path d="M 425.666348 247.9896 
L 644.863304 247.9896 
L 644.863304 33.4368 
L 425.666348 33.4368 
z
" style="fill:#ffffff;"/>
   </g>
   <g id="matplotlib.axis_3">
    <g id="xtick_7">
     <g id="line2d_22">
      <g>
       <use style="stroke:#000000;stroke-width:0.8;" x="435.629846" xlink:href="#m57230c55be" y="247.9896"/>
      </g>
     </g>
     <g id="text_17">
      <!-- 0 -->
      <g transform="translate(432.448596 262.588037)scale(0.1 -0.1)">
       <use xlink:href="#DejaVuSans-48"/>
      </g>
     </g>
    </g>
    <g id="xtick_8">
     <g id="line2d_23">
      <g>
       <use style="stroke:#000000;stroke-width:0.8;" x="475.483838" xlink:href="#m57230c55be" y="247.9896"/>
      </g>
     </g>
     <g id="text_18">
      <!-- 10 -->
      <g transform="translate(469.121338 262.588037)scale(0.1 -0.1)">
       <use xlink:href="#DejaVuSans-49"/>
       <use x="63.623047" xlink:href="#DejaVuSans-48"/>
      </g>
     </g>
    </g>
    <g id="xtick_9">
     <g id="line2d_24">
      <g>
       <use style="stroke:#000000;stroke-width:0.8;" x="515.33783" xlink:href="#m57230c55be" y="247.9896"/>
      </g>
     </g>
     <g id="text_19">
      <!-- 20 -->
      <g transform="translate(508.97533 262.588037)scale(0.1 -0.1)">
       <use xlink:href="#DejaVuSans-50"/>
       <use x="63.623047" xlink:href="#DejaVuSans-48"/>
      </g>
     </g>
    </g>
    <g id="xtick_10">
     <g id="line2d_25">
      <g>
       <use style="stroke:#000000;stroke-width:0.8;" x="555.191822" xlink:href="#m57230c55be" y="247.9896"/>
      </g>
     </g>
     <g id="text_20">
      <!-- 30 -->
      <g transform="translate(548.829322 262.588037)scale(0.1 -0.1)">
       <use xlink:href="#DejaVuSans-51"/>
       <use x="63.623047" xlink:href="#DejaVuSans-48"/>
      </g>
     </g>
    </g>
    <g id="xtick_11">
     <g id="line2d_26">
      <g>
       <use style="stroke:#000000;stroke-width:0.8;" x="595.045814" xlink:href="#m57230c55be" y="247.9896"/>
      </g>
     </g>
     <g id="text_21">
      <!-- 40 -->
      <g transform="translate(588.683314 262.588037)scale(0.1 -0.1)">
       <use xlink:href="#DejaVuSans-52"/>
       <use x="63.623047" xlink:href="#DejaVuSans-48"/>
      </g>
     </g>
    </g>
    <g id="xtick_12">
     <g id="line2d_27">
      <g>
       <use style="stroke:#000000;stroke-width:0.8;" x="634.899806" xlink:href="#m57230c55be" y="247.9896"/>
      </g>
     </g>
     <g id="text_22">
      <!-- 50 -->
      <g transform="translate(628.537306 262.588037)scale(0.1 -0.1)">
       <use xlink:href="#DejaVuSans-53"/>
       <use x="63.623047" xlink:href="#DejaVuSans-48"/>
      </g>
     </g>
    </g>
   </g>
   <g id="matplotlib.axis_4">
    <g id="ytick_7">
     <g id="line2d_28">
      <g>
       <use style="stroke:#000000;stroke-width:0.8;" x="425.666348" xlink:href="#mc24ce28d86" y="238.2372"/>
      </g>
     </g>
     <g id="text_23">
      <!-- 0 -->
      <g transform="translate(412.303848 242.036419)scale(0.1 -0.1)">
       <use xlink:href="#DejaVuSans-48"/>
      </g>
     </g>
    </g>
    <g id="ytick_8">
     <g id="line2d_29">
      <g>
       <use style="stroke:#000000;stroke-width:0.8;" x="425.666348" xlink:href="#mc24ce28d86" y="198.693546"/>
      </g>
     </g>
     <g id="text_24">
      <!-- 200 -->
      <g transform="translate(399.578848 202.492765)scale(0.1 -0.1)">
       <use xlink:href="#DejaVuSans-50"/>
       <use x="63.623047" xlink:href="#DejaVuSans-48"/>
       <use x="127.246094" xlink:href="#DejaVuSans-48"/>
      </g>
     </g>
    </g>
    <g id="ytick_9">
     <g id="line2d_30">
      <g>
       <use style="stroke:#000000;stroke-width:0.8;" x="425.666348" xlink:href="#mc24ce28d86" y="159.149892"/>
      </g>
     </g>
     <g id="text_25">
      <!-- 400 -->
      <g transform="translate(399.578848 162.949111)scale(0.1 -0.1)">
       <use xlink:href="#DejaVuSans-52"/>
       <use x="63.623047" xlink:href="#DejaVuSans-48"/>
       <use x="127.246094" xlink:href="#DejaVuSans-48"/>
      </g>
     </g>
    </g>
    <g id="ytick_10">
     <g id="line2d_31">
      <g>
       <use style="stroke:#000000;stroke-width:0.8;" x="425.666348" xlink:href="#mc24ce28d86" y="119.606238"/>
      </g>
     </g>
     <g id="text_26">
      <!-- 600 -->
      <g transform="translate(399.578848 123.405457)scale(0.1 -0.1)">
       <use xlink:href="#DejaVuSans-54"/>
       <use x="63.623047" xlink:href="#DejaVuSans-48"/>
       <use x="127.246094" xlink:href="#DejaVuSans-48"/>
      </g>
     </g>
    </g>
    <g id="ytick_11">
     <g id="line2d_32">
      <g>
       <use style="stroke:#000000;stroke-width:0.8;" x="425.666348" xlink:href="#mc24ce28d86" y="80.062584"/>
      </g>
     </g>
     <g id="text_27">
      <!-- 800 -->
      <g transform="translate(399.578848 83.861803)scale(0.1 -0.1)">
       <use xlink:href="#DejaVuSans-56"/>
       <use x="63.623047" xlink:href="#DejaVuSans-48"/>
       <use x="127.246094" xlink:href="#DejaVuSans-48"/>
      </g>
     </g>
    </g>
    <g id="ytick_12">
     <g id="line2d_33">
      <g>
       <use style="stroke:#000000;stroke-width:0.8;" x="425.666348" xlink:href="#mc24ce28d86" y="40.51893"/>
      </g>
     </g>
     <g id="text_28">
      <!-- 1000 -->
      <g transform="translate(393.216348 44.318149)scale(0.1 -0.1)">
       <use xlink:href="#DejaVuSans-49"/>
       <use x="63.623047" xlink:href="#DejaVuSans-48"/>
       <use x="127.246094" xlink:href="#DejaVuSans-48"/>
       <use x="190.869141" xlink:href="#DejaVuSans-48"/>
      </g>
     </g>
    </g>
   </g>
   <g id="line2d_34">
    <path clip-path="url(#pe50faff0f0)" d="M 435.629846 60.290757 
L 439.615245 73.63674 
L 443.600644 91.845666 
L 447.586043 114.912798 
L 451.571443 141.24961 
L 455.556842 167.50886 
L 459.542241 189.873686 
L 463.52764 206.210973 
L 467.51304 216.850514 
L 471.498439 223.397607 
L 475.483838 227.400416 
L 479.469237 229.903437 
L 483.454636 231.522473 
L 487.440036 232.60731 
L 491.425435 233.358134 
L 495.410834 233.892582 
L 499.396233 234.282114 
L 503.381632 234.571644 
L 507.367032 234.790338 
L 511.352431 234.957715 
L 515.33783 235.087196 
L 519.323229 235.188238 
L 523.308628 235.267647 
L 527.294028 235.330415 
L 531.279427 235.38026 
L 535.264826 235.419992 
L 539.250225 235.45176 
L 543.235625 235.477224 
L 547.221024 235.497675 
L 551.206423 235.514128 
L 555.191822 235.527381 
L 559.177221 235.538067 
L 563.162621 235.546693 
L 567.14802 235.553659 
L 571.133419 235.559288 
L 575.118818 235.563839 
L 579.104217 235.56752 
L 583.089617 235.570498 
L 587.075016 235.572908 
L 591.060415 235.574859 
L 595.045814 235.576438 
L 599.031213 235.577716 
L 603.016613 235.578751 
L 607.002012 235.579589 
L 610.987411 235.580268 
L 614.97281 235.580818 
L 618.958209 235.581263 
L 622.943609 235.581624 
L 626.929008 235.581916 
L 630.914407 235.582152 
L 634.899806 235.582344 
" style="fill:none;stroke:#1f77b4;stroke-linecap:square;stroke-width:1.5;"/>
   </g>
   <g id="line2d_35">
    <path clip-path="url(#pe50faff0f0)" d="M 435.629846 218.465373 
L 439.615245 209.073755 
L 443.600644 196.697518 
L 447.586043 181.938323 
L 451.571443 166.861286 
L 455.556842 154.877219 
L 459.542241 149.184389 
L 463.52764 150.657664 
L 467.51304 157.534031 
L 471.498439 167.127571 
L 475.483838 177.346688 
L 479.469237 187.021769 
L 483.454636 195.64582 
L 487.440036 203.079259 
L 491.425435 209.360024 
L 495.410834 214.60101 
L 499.396233 218.938716 
L 503.381632 222.508883 
L 507.367032 225.435852 
L 511.352431 227.828746 
L 515.33783 229.780955 
L 519.323229 231.371162 
L 523.308628 232.66496 
L 527.294028 233.71664 
L 531.279427 234.570908 
L 535.264826 235.264434 
L 539.250225 235.827219 
L 543.235625 236.283751 
L 547.221024 236.65399 
L 551.206423 236.954179 
L 555.191822 237.197531 
L 559.177221 237.394778 
L 563.162621 237.554637 
L 567.14802 237.684183 
L 571.133419 237.789157 
L 575.118818 237.874215 
L 579.104217 237.943131 
L 583.089617 237.998967 
L 587.075016 238.044203 
L 591.060415 238.080852 
L 595.045814 238.110543 
L 599.031213 238.134596 
L 603.016613 238.154082 
L 607.002012 238.169867 
L 610.987411 238.182655 
L 614.97281 238.193014 
L 618.958209 238.201406 
L 622.943609 238.208204 
L 626.929008 238.213711 
L 630.914407 238.218172 
L 634.899806 238.221786 
" style="fill:none;stroke:#ff7f0e;stroke-linecap:square;stroke-width:1.5;"/>
   </g>
   <g id="line2d_36">
    <path clip-path="url(#pe50faff0f0)" d="M 435.629846 238.2372 
L 439.615245 234.282835 
L 443.600644 228.450146 
L 447.586043 220.142209 
L 451.571443 208.882434 
L 455.556842 194.607251 
L 459.542241 177.935255 
L 463.52764 160.124693 
L 467.51304 142.608786 
L 471.498439 126.468152 
L 475.483838 112.246226 
L 479.469237 100.068124 
L 483.454636 89.825038 
L 487.440036 81.306761 
L 491.425435 74.275173 
L 495.410834 68.499738 
L 499.396233 63.7725 
L 503.381632 59.912803 
L 507.367032 56.76714 
L 511.352431 54.20687 
L 515.33783 52.125179 
L 519.323229 50.43393 
L 523.308628 49.060723 
L 527.294028 47.946275 
L 531.279427 47.042163 
L 535.264826 46.308904 
L 539.250225 45.714351 
L 543.235625 45.232355 
L 547.221024 44.841665 
L 551.206423 44.525023 
L 555.191822 44.268419 
L 559.177221 44.060485 
L 563.162621 43.892001 
L 567.14802 43.755488 
L 571.133419 43.644885 
L 575.118818 43.555276 
L 579.104217 43.482679 
L 583.089617 43.423865 
L 587.075016 43.376219 
L 591.060415 43.337619 
L 595.045814 43.30635 
L 599.031213 43.281018 
L 603.016613 43.260498 
L 607.002012 43.243874 
L 610.987411 43.230407 
L 614.97281 43.219498 
L 618.958209 43.210661 
L 622.943609 43.203502 
L 626.929008 43.197703 
L 630.914407 43.193006 
L 634.899806 43.1892 
" style="fill:none;stroke:#2ca02c;stroke-linecap:square;stroke-width:1.5;"/>
   </g>
   <g id="patch_9">
    <path d="M 425.666348 247.9896 
L 425.666348 33.4368 
" style="fill:none;stroke:#000000;stroke-linecap:square;stroke-linejoin:miter;stroke-width:0.8;"/>
   </g>
   <g id="patch_10">
    <path d="M 644.863304 247.9896 
L 644.863304 33.4368 
" style="fill:none;stroke:#000000;stroke-linecap:square;stroke-linejoin:miter;stroke-width:0.8;"/>
   </g>
   <g id="patch_11">
    <path d="M 425.666348 247.9896 
L 644.863304 247.9896 
" style="fill:none;stroke:#000000;stroke-linecap:square;stroke-linejoin:miter;stroke-width:0.8;"/>
   </g>
   <g id="patch_12">
    <path d="M 425.666348 33.4368 
L 644.863304 33.4368 
" style="fill:none;stroke:#000000;stroke-linecap:square;stroke-linejoin:miter;stroke-width:0.8;"/>
   </g>
   <g id="text_29">
    <!-- R_0 = 3.75 -->
    <defs>
     <path d="M 8.203125 72.90625 
L 55.078125 72.90625 
L 55.078125 68.703125 
L 28.609375 0 
L 18.3125 0 
L 43.21875 64.59375 
L 8.203125 64.59375 
z
" id="DejaVuSans-55"/>
    </defs>
    <g transform="translate(502.077326 27.4368)scale(0.12 -0.12)">
     <use xlink:href="#DejaVuSans-82"/>
     <use x="69.482422" xlink:href="#DejaVuSans-95"/>
     <use x="119.482422" xlink:href="#DejaVuSans-48"/>
     <use x="183.105469" xlink:href="#DejaVuSans-32"/>
     <use x="214.892578" xlink:href="#DejaVuSans-61"/>
     <use x="298.681641" xlink:href="#DejaVuSans-32"/>
     <use x="330.46875" xlink:href="#DejaVuSans-51"/>
     <use x="394.091797" xlink:href="#DejaVuSans-46"/>
     <use x="425.878906" xlink:href="#DejaVuSans-55"/>
     <use x="489.501953" xlink:href="#DejaVuSans-53"/>
    </g>
   </g>
   <g id="legend_2">
    <g id="patch_13">
     <path d="M 598.914867 164.230388 
L 637.863304 164.230388 
Q 639.863304 164.230388 639.863304 162.230388 
L 639.863304 119.196012 
Q 639.863304 117.196012 637.863304 117.196012 
L 598.914867 117.196012 
Q 596.914867 117.196012 596.914867 119.196012 
L 596.914867 162.230388 
Q 596.914867 164.230388 598.914867 164.230388 
z
" style="fill:#ffffff;opacity:0.8;stroke:#cccccc;stroke-linejoin:miter;"/>
    </g>
    <g id="line2d_37">
     <path d="M 600.914867 125.29445 
L 620.914867 125.29445 
" style="fill:none;stroke:#1f77b4;stroke-linecap:square;stroke-width:1.5;"/>
    </g>
    <g id="line2d_38"/>
    <g id="text_30">
     <!-- S -->
     <g transform="translate(628.914867 128.79445)scale(0.1 -0.1)">
      <use xlink:href="#DejaVuSans-83"/>
     </g>
    </g>
    <g id="line2d_39">
     <path d="M 600.914867 139.972575 
L 620.914867 139.972575 
" style="fill:none;stroke:#ff7f0e;stroke-linecap:square;stroke-width:1.5;"/>
    </g>
    <g id="line2d_40"/>
    <g id="text_31">
     <!-- I -->
     <g transform="translate(628.914867 143.472575)scale(0.1 -0.1)">
      <use xlink:href="#DejaVuSans-73"/>
     </g>
    </g>
    <g id="line2d_41">
     <path d="M 600.914867 154.6507 
L 620.914867 154.6507 
" style="fill:none;stroke:#2ca02c;stroke-linecap:square;stroke-width:1.5;"/>
    </g>
    <g id="line2d_42"/>
    <g id="text_32">
     <!-- R -->
     <g transform="translate(628.914867 158.1507)scale(0.1 -0.1)">
      <use xlink:href="#DejaVuSans-82"/>
     </g>
    </g>
   </g>
  </g>
  <g id="axes_3">
   <g id="patch_14">
    <path d="M 688.702696 247.9896 
L 907.899652 247.9896 
L 907.899652 33.4368 
L 688.702696 33.4368 
z
" style="fill:#ffffff;"/>
   </g>
   <g id="matplotlib.axis_5">
    <g id="xtick_13">
     <g id="line2d_43">
      <g>
       <use style="stroke:#000000;stroke-width:0.8;" x="698.666194" xlink:href="#m57230c55be" y="247.9896"/>
      </g>
     </g>
     <g id="text_33">
      <!-- 0 -->
      <g transform="translate(695.484944 262.588037)scale(0.1 -0.1)">
       <use xlink:href="#DejaVuSans-48"/>
      </g>
     </g>
    </g>
    <g id="xtick_14">
     <g id="line2d_44">
      <g>
       <use style="stroke:#000000;stroke-width:0.8;" x="738.520186" xlink:href="#m57230c55be" y="247.9896"/>
      </g>
     </g>
     <g id="text_34">
      <!-- 10 -->
      <g transform="translate(732.157686 262.588037)scale(0.1 -0.1)">
       <use xlink:href="#DejaVuSans-49"/>
       <use x="63.623047" xlink:href="#DejaVuSans-48"/>
      </g>
     </g>
    </g>
    <g id="xtick_15">
     <g id="line2d_45">
      <g>
       <use style="stroke:#000000;stroke-width:0.8;" x="778.374178" xlink:href="#m57230c55be" y="247.9896"/>
      </g>
     </g>
     <g id="text_35">
      <!-- 20 -->
      <g transform="translate(772.011678 262.588037)scale(0.1 -0.1)">
       <use xlink:href="#DejaVuSans-50"/>
       <use x="63.623047" xlink:href="#DejaVuSans-48"/>
      </g>
     </g>
    </g>
    <g id="xtick_16">
     <g id="line2d_46">
      <g>
       <use style="stroke:#000000;stroke-width:0.8;" x="818.22817" xlink:href="#m57230c55be" y="247.9896"/>
      </g>
     </g>
     <g id="text_36">
      <!-- 30 -->
      <g transform="translate(811.86567 262.588037)scale(0.1 -0.1)">
       <use xlink:href="#DejaVuSans-51"/>
       <use x="63.623047" xlink:href="#DejaVuSans-48"/>
      </g>
     </g>
    </g>
    <g id="xtick_17">
     <g id="line2d_47">
      <g>
       <use style="stroke:#000000;stroke-width:0.8;" x="858.082162" xlink:href="#m57230c55be" y="247.9896"/>
      </g>
     </g>
     <g id="text_37">
      <!-- 40 -->
      <g transform="translate(851.719662 262.588037)scale(0.1 -0.1)">
       <use xlink:href="#DejaVuSans-52"/>
       <use x="63.623047" xlink:href="#DejaVuSans-48"/>
      </g>
     </g>
    </g>
    <g id="xtick_18">
     <g id="line2d_48">
      <g>
       <use style="stroke:#000000;stroke-width:0.8;" x="897.936154" xlink:href="#m57230c55be" y="247.9896"/>
      </g>
     </g>
     <g id="text_38">
      <!-- 50 -->
      <g transform="translate(891.573654 262.588037)scale(0.1 -0.1)">
       <use xlink:href="#DejaVuSans-53"/>
       <use x="63.623047" xlink:href="#DejaVuSans-48"/>
      </g>
     </g>
    </g>
   </g>
   <g id="matplotlib.axis_6">
    <g id="ytick_13">
     <g id="line2d_49">
      <g>
       <use style="stroke:#000000;stroke-width:0.8;" x="688.702696" xlink:href="#mc24ce28d86" y="238.2372"/>
      </g>
     </g>
     <g id="text_39">
      <!-- 0 -->
      <g transform="translate(675.340196 242.036419)scale(0.1 -0.1)">
       <use xlink:href="#DejaVuSans-48"/>
      </g>
     </g>
    </g>
    <g id="ytick_14">
     <g id="line2d_50">
      <g>
       <use style="stroke:#000000;stroke-width:0.8;" x="688.702696" xlink:href="#mc24ce28d86" y="195.839195"/>
      </g>
     </g>
     <g id="text_40">
      <!-- 200 -->
      <g transform="translate(662.615196 199.638414)scale(0.1 -0.1)">
       <use xlink:href="#DejaVuSans-50"/>
       <use x="63.623047" xlink:href="#DejaVuSans-48"/>
       <use x="127.246094" xlink:href="#DejaVuSans-48"/>
      </g>
     </g>
    </g>
    <g id="ytick_15">
     <g id="line2d_51">
      <g>
       <use style="stroke:#000000;stroke-width:0.8;" x="688.702696" xlink:href="#mc24ce28d86" y="153.441191"/>
      </g>
     </g>
     <g id="text_41">
      <!-- 400 -->
      <g transform="translate(662.615196 157.24041)scale(0.1 -0.1)">
       <use xlink:href="#DejaVuSans-52"/>
       <use x="63.623047" xlink:href="#DejaVuSans-48"/>
       <use x="127.246094" xlink:href="#DejaVuSans-48"/>
      </g>
     </g>
    </g>
    <g id="ytick_16">
     <g id="line2d_52">
      <g>
       <use style="stroke:#000000;stroke-width:0.8;" x="688.702696" xlink:href="#mc24ce28d86" y="111.043186"/>
      </g>
     </g>
     <g id="text_42">
      <!-- 600 -->
      <g transform="translate(662.615196 114.842405)scale(0.1 -0.1)">
       <use xlink:href="#DejaVuSans-54"/>
       <use x="63.623047" xlink:href="#DejaVuSans-48"/>
       <use x="127.246094" xlink:href="#DejaVuSans-48"/>
      </g>
     </g>
    </g>
    <g id="ytick_17">
     <g id="line2d_53">
      <g>
       <use style="stroke:#000000;stroke-width:0.8;" x="688.702696" xlink:href="#mc24ce28d86" y="68.645182"/>
      </g>
     </g>
     <g id="text_43">
      <!-- 800 -->
      <g transform="translate(662.615196 72.4444)scale(0.1 -0.1)">
       <use xlink:href="#DejaVuSans-56"/>
       <use x="63.623047" xlink:href="#DejaVuSans-48"/>
       <use x="127.246094" xlink:href="#DejaVuSans-48"/>
      </g>
     </g>
    </g>
   </g>
   <g id="line2d_54">
    <path clip-path="url(#pda3219275b)" d="M 698.666194 47.446179 
L 702.651593 56.98573 
L 706.636992 68.313947 
L 710.622391 81.350247 
L 714.607791 95.803055 
L 718.59319 111.155514 
L 722.578589 126.715323 
L 726.563988 141.731847 
L 730.549387 155.545502 
L 734.534787 167.708781 
L 738.520186 178.031451 
L 742.505585 186.546744 
L 746.490984 193.43364 
L 750.476383 198.93687 
L 754.461783 203.308798 
L 758.447182 206.777429 
L 762.432581 209.534143 
L 766.41798 211.732892 
L 770.403379 213.494596 
L 774.388779 214.913091 
L 778.374178 216.060864 
L 782.359577 216.993931 
L 786.344976 217.755728 
L 790.330375 218.380112 
L 794.315775 218.893634 
L 798.301174 219.317257 
L 802.286573 219.667637 
L 806.271972 219.958096 
L 810.257372 220.199352 
L 814.242771 220.400073 
L 818.22817 220.567307 
L 822.213569 220.70681 
L 826.198968 220.823299 
L 830.184368 220.920656 
L 834.169767 221.002082 
L 838.155166 221.070227 
L 842.140565 221.127286 
L 846.125964 221.175084 
L 850.111364 221.21514 
L 854.096763 221.248717 
L 858.082162 221.276871 
L 862.067561 221.300484 
L 866.05296 221.320291 
L 870.03836 221.336908 
L 874.023759 221.350851 
L 878.009158 221.362552 
L 881.994557 221.372371 
L 885.979957 221.380613 
L 889.965356 221.387531 
L 893.950755 221.393338 
L 897.936154 221.398212 
" style="fill:none;stroke:#1f77b4;stroke-linecap:square;stroke-width:1.5;"/>
   </g>
   <g id="line2d_55">
    <path clip-path="url(#pda3219275b)" d="M 698.666194 217.038198 
L 702.651593 211.738447 
L 706.636992 205.709981 
L 710.622391 199.179125 
L 714.607791 192.537932 
L 718.59319 186.325327 
L 722.578589 181.147893 
L 726.563988 177.54923 
L 730.549387 175.873169 
L 734.534787 176.182696 
L 738.520186 178.270927 
L 742.505585 181.748888 
L 746.490984 186.159654 
L 750.476383 191.071934 
L 754.461783 196.133059 
L 758.447182 201.085256 
L 762.432581 205.758931 
L 766.41798 210.055836 
L 770.403379 213.930404 
L 774.388779 217.373269 
L 778.374178 220.398283 
L 782.359577 223.032999 
L 786.344976 225.312042 
L 790.330375 227.27269 
L 794.315775 228.952069 
L 798.301174 230.385473 
L 802.286573 231.605438 
L 806.271972 232.641331 
L 810.257372 233.51925 
L 814.242771 234.262119 
L 818.22817 234.889901 
L 822.213569 235.419858 
L 826.198968 235.866837 
L 830.184368 236.243553 
L 834.169767 236.560856 
L 838.155166 236.82798 
L 842.140565 237.052765 
L 846.125964 237.241853 
L 850.111364 237.400867 
L 854.096763 237.534556 
L 858.082162 237.646931 
L 862.067561 237.741372 
L 866.05296 237.820731 
L 870.03836 237.887408 
L 874.023759 237.943423 
L 878.009158 237.990478 
L 881.994557 238.030003 
L 885.979957 238.0632 
L 889.965356 238.091082 
L 893.950755 238.114499 
L 897.936154 238.134164 
" style="fill:none;stroke:#ff7f0e;stroke-linecap:square;stroke-width:1.5;"/>
   </g>
   <g id="line2d_56">
    <path clip-path="url(#pda3219275b)" d="M 698.666194 238.2372 
L 702.651593 233.9974 
L 706.636992 228.697649 
L 710.622391 222.192205 
L 714.607791 214.38059 
L 718.59319 205.240736 
L 722.578589 194.858362 
L 726.563988 183.4405 
L 730.549387 171.302906 
L 734.534787 158.8301 
L 738.520186 146.419199 
L 742.505585 134.425945 
L 746.490984 123.128282 
L 750.476383 112.712773 
L 754.461783 103.27972 
L 758.447182 94.858892 
L 762.432581 87.428503 
L 766.41798 80.932849 
L 770.403379 75.296576 
L 774.388779 70.435217 
L 778.374178 66.262431 
L 782.359577 62.694647 
L 786.344976 59.653807 
L 790.330375 57.068776 
L 794.315775 54.875873 
L 798.301174 53.018847 
L 802.286573 51.448502 
L 806.271972 50.122149 
L 810.257372 49.002976 
L 814.242771 48.059386 
L 818.22817 47.264369 
L 822.213569 46.594909 
L 826.198968 46.031441 
L 830.184368 45.557368 
L 834.169767 45.158639 
L 838.155166 44.82337 
L 842.140565 44.541526 
L 846.125964 44.304639 
L 850.111364 44.10557 
L 854.096763 43.938303 
L 858.082162 43.797775 
L 862.067561 43.679721 
L 866.05296 43.580555 
L 870.03836 43.497261 
L 874.023759 43.427303 
L 878.009158 43.368548 
L 881.994557 43.319203 
L 885.979957 43.277764 
L 889.965356 43.242964 
L 893.950755 43.21374 
L 897.936154 43.1892 
" style="fill:none;stroke:#2ca02c;stroke-linecap:square;stroke-width:1.5;"/>
   </g>
   <g id="patch_15">
    <path d="M 688.702696 247.9896 
L 688.702696 33.4368 
" style="fill:none;stroke:#000000;stroke-linecap:square;stroke-linejoin:miter;stroke-width:0.8;"/>
   </g>
   <g id="patch_16">
    <path d="M 907.899652 247.9896 
L 907.899652 33.4368 
" style="fill:none;stroke:#000000;stroke-linecap:square;stroke-linejoin:miter;stroke-width:0.8;"/>
   </g>
   <g id="patch_17">
    <path d="M 688.702696 247.9896 
L 907.899652 247.9896 
" style="fill:none;stroke:#000000;stroke-linecap:square;stroke-linejoin:miter;stroke-width:0.8;"/>
   </g>
   <g id="patch_18">
    <path d="M 688.702696 33.4368 
L 907.899652 33.4368 
" style="fill:none;stroke:#000000;stroke-linecap:square;stroke-linejoin:miter;stroke-width:0.8;"/>
   </g>
   <g id="text_44">
    <!-- R_0 = 2.5 -->
    <g transform="translate(768.931174 27.4368)scale(0.12 -0.12)">
     <use xlink:href="#DejaVuSans-82"/>
     <use x="69.482422" xlink:href="#DejaVuSans-95"/>
     <use x="119.482422" xlink:href="#DejaVuSans-48"/>
     <use x="183.105469" xlink:href="#DejaVuSans-32"/>
     <use x="214.892578" xlink:href="#DejaVuSans-61"/>
     <use x="298.681641" xlink:href="#DejaVuSans-32"/>
     <use x="330.46875" xlink:href="#DejaVuSans-50"/>
     <use x="394.091797" xlink:href="#DejaVuSans-46"/>
     <use x="425.878906" xlink:href="#DejaVuSans-53"/>
    </g>
   </g>
   <g id="legend_3">
    <g id="patch_19">
     <path d="M 861.951215 164.230388 
L 900.899652 164.230388 
Q 902.899652 164.230388 902.899652 162.230388 
L 902.899652 119.196012 
Q 902.899652 117.196012 900.899652 117.196012 
L 861.951215 117.196012 
Q 859.951215 117.196012 859.951215 119.196012 
L 859.951215 162.230388 
Q 859.951215 164.230388 861.951215 164.230388 
z
" style="fill:#ffffff;opacity:0.8;stroke:#cccccc;stroke-linejoin:miter;"/>
    </g>
    <g id="line2d_57">
     <path d="M 863.951215 125.29445 
L 883.951215 125.29445 
" style="fill:none;stroke:#1f77b4;stroke-linecap:square;stroke-width:1.5;"/>
    </g>
    <g id="line2d_58"/>
    <g id="text_45">
     <!-- S -->
     <g transform="translate(891.951215 128.79445)scale(0.1 -0.1)">
      <use xlink:href="#DejaVuSans-83"/>
     </g>
    </g>
    <g id="line2d_59">
     <path d="M 863.951215 139.972575 
L 883.951215 139.972575 
" style="fill:none;stroke:#ff7f0e;stroke-linecap:square;stroke-width:1.5;"/>
    </g>
    <g id="line2d_60"/>
    <g id="text_46">
     <!-- I -->
     <g transform="translate(891.951215 143.472575)scale(0.1 -0.1)">
      <use xlink:href="#DejaVuSans-73"/>
     </g>
    </g>
    <g id="line2d_61">
     <path d="M 863.951215 154.6507 
L 883.951215 154.6507 
" style="fill:none;stroke:#2ca02c;stroke-linecap:square;stroke-width:1.5;"/>
    </g>
    <g id="line2d_62"/>
    <g id="text_47">
     <!-- R -->
     <g transform="translate(891.951215 158.1507)scale(0.1 -0.1)">
      <use xlink:href="#DejaVuSans-82"/>
     </g>
    </g>
   </g>
  </g>
  <g id="axes_4">
   <g id="patch_20">
    <path d="M 951.739043 247.9896 
L 1170.936 247.9896 
L 1170.936 33.4368 
L 951.739043 33.4368 
z
" style="fill:#ffffff;"/>
   </g>
   <g id="matplotlib.axis_7">
    <g id="xtick_19">
     <g id="line2d_63">
      <g>
       <use style="stroke:#000000;stroke-width:0.8;" x="961.702542" xlink:href="#m57230c55be" y="247.9896"/>
      </g>
     </g>
     <g id="text_48">
      <!-- 0 -->
      <g transform="translate(958.521292 262.588037)scale(0.1 -0.1)">
       <use xlink:href="#DejaVuSans-48"/>
      </g>
     </g>
    </g>
    <g id="xtick_20">
     <g id="line2d_64">
      <g>
       <use style="stroke:#000000;stroke-width:0.8;" x="1001.556534" xlink:href="#m57230c55be" y="247.9896"/>
      </g>
     </g>
     <g id="text_49">
      <!-- 10 -->
      <g transform="translate(995.194034 262.588037)scale(0.1 -0.1)">
       <use xlink:href="#DejaVuSans-49"/>
       <use x="63.623047" xlink:href="#DejaVuSans-48"/>
      </g>
     </g>
    </g>
    <g id="xtick_21">
     <g id="line2d_65">
      <g>
       <use style="stroke:#000000;stroke-width:0.8;" x="1041.410526" xlink:href="#m57230c55be" y="247.9896"/>
      </g>
     </g>
     <g id="text_50">
      <!-- 20 -->
      <g transform="translate(1035.048026 262.588037)scale(0.1 -0.1)">
       <use xlink:href="#DejaVuSans-50"/>
       <use x="63.623047" xlink:href="#DejaVuSans-48"/>
      </g>
     </g>
    </g>
    <g id="xtick_22">
     <g id="line2d_66">
      <g>
       <use style="stroke:#000000;stroke-width:0.8;" x="1081.264518" xlink:href="#m57230c55be" y="247.9896"/>
      </g>
     </g>
     <g id="text_51">
      <!-- 30 -->
      <g transform="translate(1074.902018 262.588037)scale(0.1 -0.1)">
       <use xlink:href="#DejaVuSans-51"/>
       <use x="63.623047" xlink:href="#DejaVuSans-48"/>
      </g>
     </g>
    </g>
    <g id="xtick_23">
     <g id="line2d_67">
      <g>
       <use style="stroke:#000000;stroke-width:0.8;" x="1121.11851" xlink:href="#m57230c55be" y="247.9896"/>
      </g>
     </g>
     <g id="text_52">
      <!-- 40 -->
      <g transform="translate(1114.75601 262.588037)scale(0.1 -0.1)">
       <use xlink:href="#DejaVuSans-52"/>
       <use x="63.623047" xlink:href="#DejaVuSans-48"/>
      </g>
     </g>
    </g>
    <g id="xtick_24">
     <g id="line2d_68">
      <g>
       <use style="stroke:#000000;stroke-width:0.8;" x="1160.972502" xlink:href="#m57230c55be" y="247.9896"/>
      </g>
     </g>
     <g id="text_53">
      <!-- 50 -->
      <g transform="translate(1154.610002 262.588037)scale(0.1 -0.1)">
       <use xlink:href="#DejaVuSans-53"/>
       <use x="63.623047" xlink:href="#DejaVuSans-48"/>
      </g>
     </g>
    </g>
   </g>
   <g id="matplotlib.axis_8">
    <g id="ytick_18">
     <g id="line2d_69">
      <g>
       <use style="stroke:#000000;stroke-width:0.8;" x="951.739043" xlink:href="#mc24ce28d86" y="238.2372"/>
      </g>
     </g>
     <g id="text_54">
      <!-- 0 -->
      <g transform="translate(938.376543 242.036419)scale(0.1 -0.1)">
       <use xlink:href="#DejaVuSans-48"/>
      </g>
     </g>
    </g>
    <g id="ytick_19">
     <g id="line2d_70">
      <g>
       <use style="stroke:#000000;stroke-width:0.8;" x="951.739043" xlink:href="#mc24ce28d86" y="194.8932"/>
      </g>
     </g>
     <g id="text_55">
      <!-- 200 -->
      <g transform="translate(925.651543 198.692419)scale(0.1 -0.1)">
       <use xlink:href="#DejaVuSans-50"/>
       <use x="63.623047" xlink:href="#DejaVuSans-48"/>
       <use x="127.246094" xlink:href="#DejaVuSans-48"/>
      </g>
     </g>
    </g>
    <g id="ytick_20">
     <g id="line2d_71">
      <g>
       <use style="stroke:#000000;stroke-width:0.8;" x="951.739043" xlink:href="#mc24ce28d86" y="151.5492"/>
      </g>
     </g>
     <g id="text_56">
      <!-- 400 -->
      <g transform="translate(925.651543 155.348419)scale(0.1 -0.1)">
       <use xlink:href="#DejaVuSans-52"/>
       <use x="63.623047" xlink:href="#DejaVuSans-48"/>
       <use x="127.246094" xlink:href="#DejaVuSans-48"/>
      </g>
     </g>
    </g>
    <g id="ytick_21">
     <g id="line2d_72">
      <g>
       <use style="stroke:#000000;stroke-width:0.8;" x="951.739043" xlink:href="#mc24ce28d86" y="108.2052"/>
      </g>
     </g>
     <g id="text_57">
      <!-- 600 -->
      <g transform="translate(925.651543 112.004419)scale(0.1 -0.1)">
       <use xlink:href="#DejaVuSans-54"/>
       <use x="63.623047" xlink:href="#DejaVuSans-48"/>
       <use x="127.246094" xlink:href="#DejaVuSans-48"/>
      </g>
     </g>
    </g>
    <g id="ytick_22">
     <g id="line2d_73">
      <g>
       <use style="stroke:#000000;stroke-width:0.8;" x="951.739043" xlink:href="#mc24ce28d86" y="64.8612"/>
      </g>
     </g>
     <g id="text_58">
      <!-- 800 -->
      <g transform="translate(925.651543 68.660419)scale(0.1 -0.1)">
       <use xlink:href="#DejaVuSans-56"/>
       <use x="63.623047" xlink:href="#DejaVuSans-48"/>
       <use x="127.246094" xlink:href="#DejaVuSans-48"/>
      </g>
     </g>
    </g>
   </g>
   <g id="line2d_74">
    <path clip-path="url(#p481bd1dfbd)" d="M 961.702542 43.1892 
L 965.687941 48.0654 
L 969.67334 52.938552 
L 973.658739 57.778828 
L 977.644138 62.557501 
L 981.629538 67.247638 
L 985.614937 71.824693 
L 989.600336 76.266967 
L 993.585735 80.555925 
L 997.571134 84.676376 
L 1001.556534 88.616503 
L 1005.541933 92.367779 
L 1009.527332 95.924784 
L 1013.512731 99.284938 
L 1017.49813 102.448192 
L 1021.48353 105.41668 
L 1025.468929 108.194378 
L 1029.454328 110.786753 
L 1033.439727 113.200447 
L 1037.425126 115.442978 
L 1041.410526 117.522484 
L 1045.395925 119.447491 
L 1049.381324 121.226724 
L 1053.366723 122.868951 
L 1057.352123 124.382848 
L 1061.337522 125.776905 
L 1065.322921 127.059347 
L 1069.30832 128.238074 
L 1073.293719 129.320628 
L 1077.279119 130.314163 
L 1081.264518 131.225431 
L 1085.249917 132.060781 
L 1089.235316 132.826159 
L 1093.220715 133.527117 
L 1097.206115 134.168822 
L 1101.191514 134.756076 
L 1105.176913 135.29333 
L 1109.162312 135.784702 
L 1113.147711 136.233996 
L 1117.133111 136.644723 
L 1121.11851 137.020115 
L 1125.103909 137.36315 
L 1129.089308 137.676565 
L 1133.074708 137.962875 
L 1137.060107 138.224389 
L 1141.045506 138.463226 
L 1145.030905 138.681328 
L 1149.016304 138.880476 
L 1153.001704 139.062301 
L 1156.987103 139.228296 
L 1160.972502 139.379829 
" style="fill:none;stroke:#1f77b4;stroke-linecap:square;stroke-width:1.5;"/>
   </g>
   <g id="line2d_75">
    <path clip-path="url(#p481bd1dfbd)" d="M 961.702542 216.5652 
L 965.687941 216.0234 
L 969.67334 215.593008 
L 973.658739 215.28157 
L 977.644138 215.094024 
L 981.629538 215.032522 
L 985.614937 215.096402 
L 989.600336 215.282288 
L 993.585735 215.584312 
L 997.571134 215.994439 
L 1001.556534 216.502865 
L 1005.541933 217.098455 
L 1009.527332 217.769199 
L 1013.512731 218.502645 
L 1017.49813 219.286303 
L 1021.48353 220.107993 
L 1025.468929 220.956137 
L 1029.454328 221.819974 
L 1033.439727 222.689726 
L 1037.425126 223.556689 
L 1041.410526 224.413286 
L 1045.395925 225.253062 
L 1049.381324 226.070656 
L 1053.366723 226.861738 
L 1057.352123 227.622934 
L 1061.337522 228.35173 
L 1065.322921 229.046382 
L 1069.30832 229.705818 
L 1073.293719 230.32954 
L 1077.279119 230.917538 
L 1081.264518 231.470202 
L 1085.249917 231.988251 
L 1089.235316 232.472663 
L 1093.220715 232.924613 
L 1097.206115 233.345425 
L 1101.191514 233.736526 
L 1105.176913 234.099407 
L 1109.162312 234.435593 
L 1113.147711 234.746621 
L 1117.133111 235.03401 
L 1121.11851 235.299256 
L 1125.103909 235.54381 
L 1129.089308 235.769073 
L 1133.074708 235.976388 
L 1137.060107 236.167037 
L 1141.045506 236.342232 
L 1145.030905 236.503124 
L 1149.016304 236.650791 
L 1153.001704 236.786248 
L 1156.987103 236.910443 
L 1160.972502 237.024261 
" style="fill:none;stroke:#ff7f0e;stroke-linecap:square;stroke-width:1.5;"/>
   </g>
   <g id="line2d_76">
    <path clip-path="url(#p481bd1dfbd)" d="M 961.702542 238.2372 
L 965.687941 233.9028 
L 969.67334 229.46004 
L 973.658739 224.931202 
L 977.644138 220.340076 
L 981.629538 215.71144 
L 985.614937 211.070505 
L 989.600336 206.442345 
L 993.585735 201.851363 
L 997.571134 197.320785 
L 1001.556534 192.872233 
L 1005.541933 188.525366 
L 1009.527332 184.297617 
L 1013.512731 180.204017 
L 1017.49813 176.257106 
L 1021.48353 172.466926 
L 1025.468929 168.841085 
L 1029.454328 165.384872 
L 1033.439727 162.101427 
L 1037.425126 158.991932 
L 1041.410526 156.05583 
L 1045.395925 153.291047 
L 1049.381324 150.69422 
L 1053.366723 148.260911 
L 1057.352123 145.985819 
L 1061.337522 143.862965 
L 1065.322921 141.885871 
L 1069.30832 140.047708 
L 1073.293719 138.341431 
L 1077.279119 136.759899 
L 1081.264518 135.295967 
L 1085.249917 133.942567 
L 1089.235316 132.692778 
L 1093.220715 131.53987 
L 1097.206115 130.477353 
L 1101.191514 129.498998 
L 1105.176913 128.598863 
L 1109.162312 127.771304 
L 1113.147711 127.010983 
L 1117.133111 126.312867 
L 1121.11851 125.672229 
L 1125.103909 125.08464 
L 1129.089308 124.545962 
L 1133.074708 124.052337 
L 1137.060107 123.600175 
L 1141.045506 123.186142 
L 1145.030905 122.807148 
L 1149.016304 122.460333 
L 1153.001704 122.143051 
L 1156.987103 121.852861 
L 1160.972502 121.587509 
" style="fill:none;stroke:#2ca02c;stroke-linecap:square;stroke-width:1.5;"/>
   </g>
   <g id="patch_21">
    <path d="M 951.739043 247.9896 
L 951.739043 33.4368 
" style="fill:none;stroke:#000000;stroke-linecap:square;stroke-linejoin:miter;stroke-width:0.8;"/>
   </g>
   <g id="patch_22">
    <path d="M 1170.936 247.9896 
L 1170.936 33.4368 
" style="fill:none;stroke:#000000;stroke-linecap:square;stroke-linejoin:miter;stroke-width:0.8;"/>
   </g>
   <g id="patch_23">
    <path d="M 951.739043 247.9896 
L 1170.936 247.9896 
" style="fill:none;stroke:#000000;stroke-linecap:square;stroke-linejoin:miter;stroke-width:0.8;"/>
   </g>
   <g id="patch_24">
    <path d="M 951.739043 33.4368 
L 1170.936 33.4368 
" style="fill:none;stroke:#000000;stroke-linecap:square;stroke-linejoin:miter;stroke-width:0.8;"/>
   </g>
   <g id="text_59">
    <!-- R_0 = 1.25 -->
    <g transform="translate(1028.150022 27.4368)scale(0.12 -0.12)">
     <use xlink:href="#DejaVuSans-82"/>
     <use x="69.482422" xlink:href="#DejaVuSans-95"/>
     <use x="119.482422" xlink:href="#DejaVuSans-48"/>
     <use x="183.105469" xlink:href="#DejaVuSans-32"/>
     <use x="214.892578" xlink:href="#DejaVuSans-61"/>
     <use x="298.681641" xlink:href="#DejaVuSans-32"/>
     <use x="330.46875" xlink:href="#DejaVuSans-49"/>
     <use x="394.091797" xlink:href="#DejaVuSans-46"/>
     <use x="425.878906" xlink:href="#DejaVuSans-50"/>
     <use x="489.501953" xlink:href="#DejaVuSans-53"/>
    </g>
   </g>
   <g id="legend_4">
    <g id="patch_25">
     <path d="M 1124.987563 85.471175 
L 1163.936 85.471175 
Q 1165.936 85.471175 1165.936 83.471175 
L 1165.936 40.4368 
Q 1165.936 38.4368 1163.936 38.4368 
L 1124.987563 38.4368 
Q 1122.987563 38.4368 1122.987563 40.4368 
L 1122.987563 83.471175 
Q 1122.987563 85.471175 1124.987563 85.471175 
z
" style="fill:#ffffff;opacity:0.8;stroke:#cccccc;stroke-linejoin:miter;"/>
    </g>
    <g id="line2d_77">
     <path d="M 1126.987563 46.535238 
L 1146.987563 46.535238 
" style="fill:none;stroke:#1f77b4;stroke-linecap:square;stroke-width:1.5;"/>
    </g>
    <g id="line2d_78"/>
    <g id="text_60">
     <!-- S -->
     <g transform="translate(1154.987563 50.035238)scale(0.1 -0.1)">
      <use xlink:href="#DejaVuSans-83"/>
     </g>
    </g>
    <g id="line2d_79">
     <path d="M 1126.987563 61.213363 
L 1146.987563 61.213363 
" style="fill:none;stroke:#ff7f0e;stroke-linecap:square;stroke-width:1.5;"/>
    </g>
    <g id="line2d_80"/>
    <g id="text_61">
     <!-- I -->
     <g transform="translate(1154.987563 64.713363)scale(0.1 -0.1)">
      <use xlink:href="#DejaVuSans-73"/>
     </g>
    </g>
    <g id="line2d_81">
     <path d="M 1126.987563 75.891488 
L 1146.987563 75.891488 
" style="fill:none;stroke:#2ca02c;stroke-linecap:square;stroke-width:1.5;"/>
    </g>
    <g id="line2d_82"/>
    <g id="text_62">
     <!-- R -->
     <g transform="translate(1154.987563 79.391488)scale(0.1 -0.1)">
      <use xlink:href="#DejaVuSans-82"/>
     </g>
    </g>
   </g>
  </g>
 </g>
 <defs>
  <clipPath id="p94fe300129">
   <rect height="214.5528" width="219.196957" x="162.63" y="33.4368"/>
  </clipPath>
  <clipPath id="pe50faff0f0">
   <rect height="214.5528" width="219.196957" x="425.666348" y="33.4368"/>
  </clipPath>
  <clipPath id="pda3219275b">
   <rect height="214.5528" width="219.196957" x="688.702696" y="33.4368"/>
  </clipPath>
  <clipPath id="p481bd1dfbd">
   <rect height="214.5528" width="219.196957" x="951.739043" y="33.4368"/>
  </clipPath>
 </defs>
</svg>
